<svg id="Layer_1" data-name="Layer 1" xmlns="http://www.w3.org/2000/svg" viewBox="0 0 51.15 57.473"><defs><style>.cls-1{fill:#e535ab;}</style></defs><rect class="cls-1" x="-8.15" y="21.621" width="47.007" height="2.436" transform="translate(-12.103 24.716) rotate(-59.999)"/><rect class="cls-1" x="2.064" y="39.333" width="47.008" height="2.436"/><rect class="cls-1" x="14.141" y="32.859" width="2.436" height="27.151" transform="translate(-32.534 36.518) rotate(-59.999)"/><rect class="cls-1" x="34.567" y="-2.523" width="2.436" height="27.151" transform="translate(8.32 36.517) rotate(-59.999)"/><rect class="cls-1" x="1.79" y="9.825" width="27.151" height="2.436" transform="translate(-3.463 9.163) rotate(-30.001)"/><rect class="cls-1" x="34.584" y="-0.664" width="2.436" height="47.007" transform="translate(-6.623 20.961) rotate(-30.001)"/><rect class="cls-1" x="3.927" y="15.161" width="2.436" height="27.151"/><rect class="cls-1" x="44.786" y="15.161" width="2.436" height="27.151"/><rect class="cls-1" x="23.978" y="45.357" width="23.614" height="2.128" transform="matrix(0.866, -0.5, 0.5, 0.866, -18.416, 24.112)"/><path class="cls-1" d="M50.452,43.105a5.126,5.126,0,1,1-1.879-7,5.13,5.13,0,0,1,1.879,7"/><path class="cls-1" d="M9.563,19.49a5.125,5.125,0,1,1-1.878-7,5.129,5.129,0,0,1,1.878,7"/><path class="cls-1" d="M.7,43.105a5.125,5.125,0,1,1,7,1.878,5.134,5.134,0,0,1-7-1.878"/><path class="cls-1" d="M41.587,19.49a5.125,5.125,0,1,1,7,1.879,5.133,5.133,0,0,1-7-1.879"/><path class="cls-1" d="M25.575,57.473A5.122,5.122,0,1,1,30.7,52.351a5.118,5.118,0,0,1-5.122,5.122"/><path class="cls-1" d="M25.575,10.244A5.122,5.122,0,1,1,30.7,5.122a5.117,5.117,0,0,1-5.122,5.122"/></svg>