<svg id="Layer_1" data-name="Layer 1" xmlns="http://www.w3.org/2000/svg" viewBox="0 0 53.084 53.085"><defs><style>.cls-1{fill:#93d500;}.cls-2{fill:#4d5a31;}.cls-3{fill:#6ba43a;}.cls-4{fill:#424143;}</style></defs><path class="cls-1" d="M14.028,30.524H.021c0,.069,0,.137.008.2.006.132.015.263.023.395,0,.057.007.113.011.169.011.152.024.3.038.456,0,.034.006.068.01.1.016.169.034.337.054.505,0,.016,0,.032.005.048.022.181.045.362.072.543v.006a23.408,23.408,0,0,0,.724,3.31l0,.014q.075.257.158.51l.009.031.01.03c.05.153.1.3.154.458.014.039.027.078.041.116q.071.2.144.4c.023.06.046.12.068.18l.128.327c.033.082.067.164.1.246s.071.171.107.256c.045.1.091.208.137.312.027.062.055.124.083.185.057.125.115.249.174.373.02.04.038.08.058.12.069.142.139.284.21.424.012.022.022.043.033.065.081.155.162.311.246.465l.011.02c.017.032.037.063.054.1l11.964-7.207.044-.026A9.512,9.512,0,0,1,14.028,30.524Z"/><polygon class="cls-1" points="0.682 36.947 0.686 36.96 1.138 36.818 0.682 36.947"/><path class="cls-2" d="M17.471,36.954l-.034.034L7.571,46.855c.05.047.1.1.152.141.092.084.186.166.28.248.048.043.1.086.143.127.112.1.225.191.337.285l.091.076c.127.105.256.208.385.31l.05.039q.21.165.423.325l.016.012q.891.666,1.846,1.248l.066.04c.121.072.242.144.364.215l.223.127c.07.04.14.08.212.119.127.07.256.139.385.207l.054.029c.359.188.723.362,1.091.53h0l.35-.85L19,38.031l.018-.044A9.491,9.491,0,0,1,17.471,36.954Z"/><path class="cls-3" d="M16.443,35.972q-.159-.178-.307-.363c-.088-.109-.174-.219-.256-.331s-.187-.256-.274-.387-.175-.265-.256-.4L3.372,41.707c.184.3.376.6.571.9l.02.031h0l.007.011.019.03,0,0,.047.07,0,0h0l0,0c.208.308.421.61.642.9l.014.019.014.019c.1.126.192.253.291.379l.039.049q.153.194.31.384l.075.091q.142.169.286.338l.127.143c.082.094.164.187.248.28.046.051.094.1.141.152l.064.069c.061.067.122.133.185.2l.076.078c.109.113.219.227.331.339l9.881-9.881C16.654,36.205,16.548,36.089,16.443,35.972Z"/><path class="cls-2" d="M29.541,36.949c-.109.088-.219.174-.33.256l.024.041,7.2,11.959c.333-.218.663-.442.985-.678a23.864,23.864,0,0,0,2.022-1.672L29.58,36.988Z"/><path class="cls-1" d="M35.529,49.775l.016-.009h0l-.016.009Z"/><polygon class="cls-1" points="35.522 49.779 35.523 49.779 35.522 49.779 35.522 49.779 35.522 49.779"/><path class="cls-1" d="M35.545,49.766h0c.032-.017.063-.034.094-.053l0,0Z"/><polygon class="cls-1" points="35.525 49.777 35.529 49.775 35.529 49.775 35.525 49.777"/><polygon class="cls-1" points="35.522 49.779 35.522 49.779 35.505 49.749 35.522 49.779"/><path class="cls-1" d="M35.529,49.775h0l.016-.009h0Z"/><polygon class="cls-1" points="35.516 49.783 35.516 49.783 35.52 49.781 35.52 49.78 35.516 49.783"/><polygon class="cls-1" points="35.522 49.779 35.52 49.78 35.52 49.781 35.522 49.779 35.522 49.779"/><polygon class="cls-1" points="35.525 49.777 35.522 49.779 35.523 49.779 35.529 49.775 35.529 49.775 35.525 49.777"/><path class="cls-1" d="M35.545,49.766c.031-.018.063-.034.094-.053-.031.019-.062.036-.094.053Z"/><polygon class="cls-1" points="35.639 49.713 35.637 49.71 35.637 49.71 35.639 49.713"/><rect class="cls-1" x="35.516" y="49.783" transform="translate(-21.65 28.062) rotate(-33.69)"/><polygon class="cls-1" points="35.512 49.785 35.513 49.785 35.513 49.785 35.512 49.785"/><polygon class="cls-1" points="35.516 49.783 35.513 49.785 35.513 49.785 35.516 49.783 35.516 49.783 35.516 49.783"/><path class="cls-1" d="M35.393,49.3l-.245-.406L28.424,37.735c-.136.082-.276.156-.415.231s-.281.146-.424.214a9.515,9.515,0,0,1-6.812.528c-.151-.045-.3-.1-.448-.157s-.3-.1-.447-.159L14.919,50.435l-.194.472-.167.405v0l.039.014.041.016h0l.009,0c.118.048.235.089.353.135.148.057.295.115.443.17.075.027.15.059.226.086h0a23.636,23.636,0,0,0,4.8,1.148l.191.025.2.022c.126.014.252.029.378.041l.094.009c.155.014.31.027.464.038l.158.01c.136.009.271.018.407.024.083.005.166.007.249.01l.324.011c.155,0,.311.005.467.006l.11,0a23.645,23.645,0,0,0,3.9-.325h0l.065-.01c.137-.024.273-.05.41-.075l.233-.045.239-.05q.2-.042.4-.087l.072-.017a23.606,23.606,0,0,0,5.638-2.1h0c.116-.062.23-.132.346-.2q.207-.114.413-.233c.095-.055.192-.1.286-.161h0l0,0h0l0,0h0l-.017-.03.017.03,0,0,0,0,.016-.009.092-.056h0Z"/><path class="cls-1" d="M17.476,22.2c.109-.088.219-.174.331-.256l-.025-.041-7.2-11.96c-.335.219-.665.444-.988.681A23.643,23.643,0,0,0,7.57,12.3l9.867,9.868Z"/><path class="cls-2" d="M6.886,12.954c-.112.112-.218.228-.328.342s-.221.227-.328.343a23.578,23.578,0,0,0-2,2.473l-.086.124c-.068.1-.135.2-.2.3s-.137.207-.2.311l-.074.114A23.452,23.452,0,0,0,.021,28.629c-.007.158-.01.315-.013.473S0,29.418,0,29.576H13.975c0-.158.015-.316.022-.474s.011-.316.026-.474a9.488,9.488,0,0,1,2.108-5.089c.1-.121.212-.235.318-.352s.2-.239.318-.352Z"/><path class="cls-2" d="M35.72,9.485l-.058-.035c-.122-.075-.246-.147-.371-.22l-.216-.124-.218-.121c-.127-.07-.253-.137-.38-.205l-.06-.031A23.274,23.274,0,0,0,31.9,7.616L31.83,7.59c-.187-.07-.375-.139-.564-.205a23.63,23.63,0,0,0-4.709-1.118l-.2-.026-.2-.022c-.126-.015-.253-.029-.38-.041l-.106-.01c-.15-.013-.3-.027-.451-.037l-.176-.011c-.129-.009-.26-.018-.389-.023-.069,0-.137-.006-.2-.008V20.1a9.776,9.776,0,0,1,2.122.462L36.888,10.25C36.505,9.985,36.118,9.727,35.72,9.485Z"/><rect class="cls-3" x="11.502" y="9.408" height="0.474" transform="translate(-3.327 7.319) rotate(-31.065)"/><polygon class="cls-3" points="11.379 9.44 11.38 9.442 11.38 9.442 11.379 9.44"/><path class="cls-3" d="M23.035,6.078c-.158,0-.316,0-.474.01a23.848,23.848,0,0,0-2.954.3l-.065.011c-.137.024-.273.049-.409.075l-.233.044q-.12.024-.24.051c-.133.027-.266.056-.4.087h0l-.073.016a23.675,23.675,0,0,0-5.639,2.1h0c-.117.062-.23.132-.345.2-.139.076-.276.154-.414.233-.1.059-.205.113-.307.173l0,0h0l-.021.012c-.027.016-.054.03-.08.046v0l.245.406h0l6.969,11.57c.136-.082.275-.157.414-.231s.282-.146.424-.214A9.507,9.507,0,0,1,22.56,20.1c.158-.016.316-.029.474-.037s.316-.017.474-.017V6.068C23.351,6.068,23.193,6.075,23.035,6.078Z"/><path class="cls-2" d="M46.988,28.421c-.006-.126-.014-.251-.022-.377,0-.062-.008-.124-.013-.188-.01-.147-.023-.3-.036-.442,0-.039-.007-.077-.01-.115-.016-.165-.034-.33-.053-.494l-.005-.04,0-.019c-.022-.178-.045-.356-.071-.533l0-.017a23.665,23.665,0,0,0-.722-3.3l-.007-.021c-.051-.168-.1-.336-.156-.5q-.011-.032-.021-.066c-.05-.151-.1-.3-.152-.452-.015-.041-.029-.081-.043-.122-.046-.13-.093-.26-.142-.39-.023-.062-.047-.124-.071-.185-.041-.108-.083-.215-.125-.322l-.1-.253-.1-.249c-.046-.106-.092-.212-.139-.318-.027-.06-.053-.12-.081-.18q-.087-.189-.177-.378c-.018-.038-.036-.076-.055-.114q-.1-.216-.212-.43l-.031-.059c-.081-.157-.163-.314-.247-.469l-.009-.017a23.353,23.353,0,0,0-1.338-2.17L32.525,26.506a9.684,9.684,0,0,1,.462,2.122H47C46.994,28.559,46.992,28.489,46.988,28.421Z"/><path class="cls-3" d="M33.042,29.576c0,.158-.015.316-.022.474s-.011.316-.026.474a9.487,9.487,0,0,1-2.108,5.09c-.1.121-.212.235-.318.352s-.205.239-.318.352L40.132,46.2c.112-.112.218-.228.327-.342s.221-.227.328-.343a23.506,23.506,0,0,0,2-2.482c.024-.033.047-.067.07-.1.074-.106.145-.213.217-.319s.126-.19.187-.287c.03-.046.061-.093.09-.139A23.444,23.444,0,0,0,47,30.524c.006-.158.009-.316.012-.474s.008-.316.008-.474Z"/><path class="cls-4" d="M51.167,1.917A6.545,6.545,0,0,0,40.676,9.454l-14.26,14.26a6.548,6.548,0,1,0,2.954,2.955l14.261-14.26A6.545,6.545,0,0,0,51.167,1.917Z"/></svg>